FFmpeg version SVN-r25716, Copyright (c) 2000-2010 the FFmpeg developers  built on Nov 10 2010 12:23:18 with gcc 4.1.2 20080704 (Red Hat 4.1.2-48)  configuration: --enable-libmp3lame --enable-shared --disable-mmx --arch=x86_64  libavutil     50.33. 0 / 50.33. 0  libavcore      0.12. 1 /  0.12. 1  libavcodec    52.94. 4 / 52.94. 4  libavformat   52.84. 0 / 52.84. 0  libavdevice   52. 2. 2 / 52. 2. 2  libavfilter    1.59. 0 /  1.59. 0  libswscale     0.12. 0 /  0.12. 0Seems stream 0 codec frame rate differs from container frame rate: 1200.00 (1200/1) -> 15.00 (15/1)Input #0, mov,mp4,m4a,3gp,3g2,mj2, from '/RAID10/data/converted_video_files/13403.mov':  Metadata:    major_brand     : qt      minor_version   : 537199360    compatible_brands: qt    Duration: 00:00:08.00, start: 0.000000, bitrate: 6466 kb/s    Stream #0.0(eng): Video: h264, yuv420p, 512x512, 6460 kb/s, 15 fps, 15 tbr, 600 tbn, 1200 tbc[buffer @ 0x2deb3c0] w:512 h:512 pixfmt:yuv420pOutput #0, flv, to '/RAID10/data/converted_video_files/13403.flv':  Metadata:    encoder         : Lavf52.84.0    Stream #0.0(eng): Video: flv, yuv420p, 512x512, q=2-31, 600 kb/s, 1k tbn, 24 tbcStream mapping:  Stream #0.0 -> #0.0Press [q] to stop encodingframe=   32 fps=  0 q=19.5 size=     419kB time=2.12 bitrate=1616.8kbits/s    frame=   65 fps= 63 q=16.8 size=     512kB time=4.29 bitrate= 976.7kbits/s    frame=   96 fps= 63 q=16.0 size=     609kB time=6.38 bitrate= 783.2kbits/s    frame=  120 fps= 62 q=16.6 Lsize=     698kB time=7.96 bitrate= 718.9kbits/s    video:696kB audio:0kB global headers:0kB muxing overhead 0.298719%